<svg aria-hidden="true" style="position: absolute; width: 0; height: 0; overflow: hidden;" version="1.1" xmlns="http://www.w3.org/2000/svg" xmlns:xlink="http://www.w3.org/1999/xlink">
<defs>
<symbol id="logo" viewBox="0 0 32 32">
<path d="M30.122 9.006c0-4.164-3.378-7.551-7.531-7.551-3.124 0-5.902 1.959-7.014 4.803-1.112-2.844-3.891-4.803-7.015-4.803-4.152 0-7.531 3.387-7.531 7.551 0 3.129 1.883 5.859 4.7 6.994-2.817 1.135-4.7 3.866-4.7 6.994 0 4.164 3.378 7.551 7.531 7.551 3.124 0 5.902-1.959 7.015-4.803 1.112 2.844 3.89 4.803 7.014 4.803 4.153 0 7.531-3.387 7.531-7.551 0-3.129-1.883-5.859-4.7-6.994 2.817-1.135 4.7-3.866 4.7-6.994zM24.136 15.646c-0.164 0.038-0.281 0.185-0.281 0.354s0.116 0.316 0.281 0.354c3.098 0.722 5.261 3.452 5.261 6.64 0 3.763-3.053 6.824-6.806 6.824-3.203 0-6.004-2.278-6.66-5.417-0.035-0.168-0.183-0.289-0.355-0.289s-0.32 0.121-0.355 0.289c-0.656 3.139-3.457 5.417-6.66 5.417-3.753 0-6.806-3.061-6.806-6.824 0-3.188 2.163-5.918 5.261-6.64 0.164-0.038 0.28-0.185 0.28-0.354s-0.116-0.316-0.28-0.354c-3.098-0.722-5.261-3.452-5.261-6.64 0-3.763 3.053-6.824 6.806-6.824 3.203 0 6.004 2.278 6.66 5.417 0.035 0.168 0.183 0.289 0.355 0.289s0.32-0.121 0.355-0.289c0.656-3.139 3.457-5.417 6.66-5.417 3.753 0 6.806 3.061 6.806 6.824 0 3.188-2.163 5.918-5.261 6.64z"></path>
<path stroke-linejoin="miter" stroke-linecap="butt" stroke-miterlimit="4" stroke-width="1.9394" d="M30.122 9.006c0-4.164-3.378-7.551-7.531-7.551-3.124 0-5.902 1.959-7.014 4.803-1.112-2.844-3.891-4.803-7.015-4.803-4.152 0-7.531 3.387-7.531 7.551 0 3.129 1.883 5.859 4.7 6.994-2.817 1.135-4.7 3.866-4.7 6.994 0 4.164 3.378 7.551 7.531 7.551 3.124 0 5.902-1.959 7.015-4.803 1.112 2.844 3.89 4.803 7.014 4.803 4.153 0 7.531-3.387 7.531-7.551 0-3.129-1.883-5.859-4.7-6.994 2.817-1.135 4.7-3.866 4.7-6.994zM24.136 15.646c-0.164 0.038-0.281 0.185-0.281 0.354s0.116 0.316 0.281 0.354c3.098 0.722 5.261 3.452 5.261 6.64 0 3.763-3.053 6.824-6.806 6.824-3.203 0-6.004-2.278-6.66-5.417-0.035-0.168-0.183-0.289-0.355-0.289s-0.32 0.121-0.355 0.289c-0.656 3.139-3.457 5.417-6.66 5.417-3.753 0-6.806-3.061-6.806-6.824 0-3.188 2.163-5.918 5.261-6.64 0.164-0.038 0.28-0.185 0.28-0.354s-0.116-0.316-0.28-0.354c-3.098-0.722-5.261-3.452-5.261-6.64 0-3.763 3.053-6.824 6.806-6.824 3.203 0 6.004 2.278 6.66 5.417 0.035 0.168 0.183 0.289 0.355 0.289s0.32-0.121 0.355-0.289c0.656-3.139 3.457-5.417 6.66-5.417 3.753 0 6.806 3.061 6.806 6.824 0 3.188-2.163 5.918-5.261 6.64z"></path>
</symbol>
</defs>
</svg>
